<?xml version="1.0" standalone="no"?>
<!DOCTYPE svg PUBLIC "-//W3C//DTD SVG 20010904//EN"
 "http://www.w3.org/TR/2001/REC-SVG-20010904/DTD/svg10.dtd">
<svg version="1.0" xmlns="http://www.w3.org/2000/svg"
 width="798.000000pt" height="798.000000pt" viewBox="0 0 798.000000 798.000000"
 preserveAspectRatio="xMidYMid meet">
<metadata>
</metadata>
<g transform="translate(0.000000,798.000000) scale(0.100000,-0.100000)"
fill="#000000" stroke="none">
<path d="M0 6358 l0 -1621 26 24 26 24 734 0 734 0 27 -28 28 -27 3 -713 c2
-502 0 -723 -8 -750 -20 -70 8 -68 -799 -65 l-719 3 -26 24 -26 24 0 -853 0
-853 26 24 26 24 734 0 734 0 27 -28 28 -27 3 -720 c2 -615 0 -725 -12 -755
-8 -19 -21 -35 -28 -36 -7 0 -4 -4 7 -9 11 -5 -313 -9 -755 -9 -426 0 -769 3
-762 7 9 7 8 13 -8 27 -20 18 -20 18 -20 -13 l0 -32 3990 0 3990 0 0 3990 0
3990 -3990 0 -3990 0 0 -1622z m6303 1591 c14 -6 30 -22 36 -36 8 -17 11 -233
11 -728 0 -495 -3 -711 -11 -728 -6 -14 -22 -30 -36 -36 -17 -8 -235 -11 -733
-11 -498 0 -716 3 -733 11 -14 6 -30 22 -36 36 -16 34 -16 1422 0 1457 6 13
21 29 33 34 31 15 1437 16 1469 1z m-4790 -1590 c14 -6 30 -22 36 -36 16 -34
16 -1432 0 -1466 -6 -14 -22 -30 -36 -36 -17 -8 -233 -11 -728 -11 -495 0
-711 3 -728 11 -14 6 -30 22 -36 36 -16 34 -16 1432 0 1467 6 13 21 29 33 34
31 15 1427 16 1459 1z m1600 0 c14 -6 30 -22 36 -36 16 -34 16 -1432 0 -1466
-6 -14 -22 -30 -36 -36 -17 -8 -235 -11 -733 -11 -498 0 -716 3 -733 11 -14 6
-30 22 -36 36 -16 34 -16 1432 0 1467 6 13 21 29 33 34 31 15 1437 16 1469 1z
m1624 -1602 l28 -27 3 -713 c2 -502 0 -723 -8 -750 -20 -70 8 -68 -800 -65
l-720 3 -27 28 -28 27 0 734 c0 720 0 734 20 756 11 12 29 26 40 31 11 4 345
7 742 6 l723 -2 27 -28z m3156 2 c14 -6 30 -22 36 -36 8 -17 11 -233 11 -728
0 -495 -3 -711 -11 -728 -6 -14 -22 -30 -36 -36 -34 -16 -1422 -16 -1456 0
-14 6 -30 22 -36 36 -16 34 -16 1422 0 1457 6 13 21 29 33 34 31 15 1427 16
1459 1z m-4780 -1590 c14 -6 30 -22 36 -36 16 -34 16 -1432 0 -1466 -6 -14
-22 -30 -36 -36 -34 -16 -1432 -16 -1466 0 -14 6 -30 22 -36 36 -16 34 -16
1432 0 1467 6 13 21 29 33 34 31 15 1437 16 1469 1z m1590 0 c14 -6 30 -22 36
-36 16 -34 16 -1432 0 -1466 -6 -14 -22 -30 -36 -36 -34 -16 -1422 -16 -1456
0 -14 6 -30 22 -36 36 -16 34 -16 1432 0 1467 6 13 21 29 33 34 31 15 1427 16
1459 1z"/>
</g>
</svg>
